<svg xmlns="http://www.w3.org/2000/svg" xmlns:xlink="http://www.w3.org/1999/xlink" version="1.1" x="0px" y="0px" viewBox="0 0 69 86.25" style="enable-background:new 0 0 69 69;" xml:space="preserve"><g><g><path d="M49.09022,27.11684c-1.02991,0.77002-2.25,1.15002-3.45996,1.15002c-1.25,0-2.47998-0.40002-3.51001-1.19006    l0.53003-0.38989l8.40002-6.25C51.96034,22.81679,51.18031,25.55678,49.09022,27.11684z"/><path d="M42.39045,28.50936c-0.50879-0.21875-1.0957,0.01465-1.31445,0.52148l-0.74609,1.72656    c-0.21875,0.50684,0.01465,1.0957,0.52148,1.31445c0.50049,0.21612,1.09304-0.00839,1.31445-0.52148l0.74609-1.72656    C43.13068,29.31698,42.89729,28.72811,42.39045,28.50936z"/><path d="M46.06135,29.05037c-0.54883,0.06348-0.94141,0.55957-0.87793,1.1084l0.2168,1.86719    c0.06408,0.5575,0.57403,0.94473,1.1084,0.87793c0.54883-0.06348,0.94141-0.55957,0.87793-1.1084l-0.2168-1.86719    C47.10627,29.38045,46.62287,28.98495,46.06135,29.05037z"/><path d="M50.909,27.88827c-0.3291-0.44238-0.95801-0.53516-1.39941-0.20605c-0.44336,0.33008-0.53516,0.95605-0.20605,1.39941    l1.12207,1.50879c0.33113,0.4448,0.95835,0.53384,1.39941,0.20605c0.44336-0.33008,0.53516-0.95605,0.20605-1.39941    L50.909,27.88827z"/><path d="M54.85334,24.99764l-1.72656-0.74512c-0.50781-0.21875-1.0957,0.01465-1.31445,0.52148    c-0.21875,0.50781,0.01465,1.0957,0.52148,1.31445l1.72656,0.74512c0.50049,0.21612,1.09304-0.00839,1.31445-0.52148    C55.59357,25.80428,55.36018,25.21639,54.85334,24.99764z"/><path d="M55.09846,19.77791l-1.86816,0.2168c-0.54883,0.06348-0.94141,0.55957-0.87793,1.1084    c0.06408,0.5575,0.57403,0.94473,1.1084,0.87793l1.86816-0.2168c0.54883-0.06348,0.94141-0.55957,0.87793-1.1084    C56.14436,20.10799,55.64826,19.71053,55.09846,19.77791z"/></g><g><path d="M55.69032,14.49685l-6.66992,4.96008l-7.56006,5.61987l-6.66003,4.96008c-3.88001-5.22009-3.94007-12.01001-0.55994-16.62    l-0.57007-0.77002L16.25038,25.60683c-0.64014-1.37-1.66016-2.52002-2.90015-3.29004L31.09022,9.11684    c-0.81982-1.53003-0.41992-3.45996,1.01001-4.53003c1.56006-1.13989,3.77002-0.85999,4.96008,0.72998l2.88,3.88013    C45.33033,7.27688,51.81031,9.28689,55.69032,14.49685z"/></g><path d="M24.37025,57.70693v0.67993H13.26039c0.42993-1.45996,1.77991-2.53003,3.37988-2.53003h0.37012L9.2704,36.61684   c1.47998-0.01001,2.93994-0.44995,4.20996-1.29004l8.25,20.56006C22.94032,56.03688,23.88026,56.77687,24.37025,57.70693z"/><g><path d="M14.9203,29.71694c-0.19995,1.34985-0.88,2.58984-1.92993,3.50989c-1.07007,0.90002-2.40015,1.39001-3.76001,1.39001    c-0.27002,0-0.55005-0.02002-0.83008-0.06006c-0.23999-0.03992-0.44995-0.08984-0.66992-0.1499    c-2.79004-0.73999-4.59009-3.47998-4.17004-6.36999c0.46997-3.12,3.39001-5.30005,6.51001-4.83997    c0.30994,0.04993,0.58997,0.10986,0.84998,0.19995c1.80005,0.54004,3.21997,1.94995,3.79004,3.76001    C14.98036,27.97683,15.0503,28.86684,14.9203,29.71694z"/></g><g><g><path d="M27.37025,54.35683h4.93006v10.75h-4.93006c-0.54993,0-1-0.44995-1-1v-8.75     C26.37025,54.80678,26.82032,54.35683,27.37025,54.35683z"/><rect x="34.3003" y="54.35683" width="3.25" height="10.75"/><path d="M57.48036,59.73684c0,0.60999-0.5,1.10999-1.11011,1.10999c-0.61987,0-1.11987-0.5-1.11987-1.10999     c0-0.62,0.5-1.12,1.11987-1.12C56.98036,58.61684,57.48036,59.11684,57.48036,59.73684z"/><path d="M64.50037,54.35683H39.5503v10.75h24.95007c0.54993,0,1-0.44995,1-1v-8.75     C65.50037,54.80678,65.0503,54.35683,64.50037,54.35683z M56.37025,62.84682c-1.71997,0-3.11987-1.3999-3.11987-3.10999     c0-1.71997,1.3999-3.12,3.11987-3.12c1.71008,0,3.11011,1.40002,3.11011,3.12     C59.48036,61.44692,58.08033,62.84682,56.37025,62.84682z"/></g></g><g><g><path d="M34.04029,45.87685c0,0.55005,0.44006,1,1,1h22.04993c0.42017,1.72998,1.89014,3.18994,3.88013,3.38     c0.51001,0.04993,0.8999,0.47998,0.8999,1v0.09998c0,0.55005-0.44995,1-1,1H33.53028c-3.56995,0-6.46997-2.8999-6.46997-6.46997     c0-1.73999,0.67004-3.37,1.89001-4.59009c1.22998-1.21997,2.85999-1.88989,4.57996-1.88989h27.33997c0.55005,0,1,0.44995,1,1     v0.09998c0,0.52002-0.38989,0.95007-0.8999,1c-1.71997,0.16003-3.18005,1.30994-3.73999,2.93005     c0,0.01001-0.01001,0.02002-0.01001,0.03003c-0.05005,0.12988-0.09009,0.2699-0.12012,0.40991H35.04029     C34.48036,44.87685,34.04029,45.31679,34.04029,45.87685z"/></g></g><path d="M24.5503,65.10683H8.25038v-1.88001c0-1.56995,1.27991-2.83997,2.84985-2.83997h13.27002v3.71997   C24.37025,64.45693,24.43031,64.79678,24.5503,65.10683z"/></g></svg>