<svg xmlns="http://www.w3.org/2000/svg" data-name="Layer 1" viewBox="0 0 512 640" x="0px" y="0px"><title>Business Idea</title><g data-name="Group"><path data-name="Compound Path" d="M190.332,222.579c14.262,14.193,18.685,20.116,16.458,35.986a8.359,8.359,0,0,0,1.9,6.535,8.163,8.163,0,0,0,6.026,2.9h.033l81.541-.491a8.128,8.128,0,0,0,7.892-9.216c-2.263-16.39,2.541-21.186,16.8-35.362.025-.025.051-.061.076-.086,16.016-16.359,24.837-37.433,24.837-59.333a83.783,83.783,0,0,0-25.436-59.969,92.03,92.03,0,0,0-127.777-.761c-16.979,16.131-26.535,37.18-26.908,59.263A83.562,83.562,0,0,0,190.332,222.579Zm64.4-129.2c.39-.006.779-.008,1.168-.008a75.288,75.288,0,0,1,53.325,21.56,67.893,67.893,0,0,1,20.668,48.572c0,17.674-7.185,34.752-20.233,48.1-12.865,12.79-21.948,21.84-21.987,39.778l-64.363.26c-.035-17.427-8.557-27.334-21.7-40.412a67.509,67.509,0,0,1-19.843-48.906C182.388,125.546,215.805,93.975,254.73,93.383Z"/><path data-name="Path" d="M254,65.3a8,8,0,0,0,8-8V25a8,8,0,0,0-16,0V57.3A8,8,0,0,0,254,65.3Z"/><path data-name="Path" d="M337.543,103.082a7.976,7.976,0,0,0,5.341-2.045l24.983-22.415a8,8,0,1,0-10.686-11.91L332.2,89.127a8,8,0,0,0,5.345,13.955Z"/><path data-name="Path" d="M167.866,97.875a8,8,0,1,0,11.1-11.52L155.027,63.281a8,8,0,0,0-11.1,11.52Z"/><path data-name="Compound Path" d="M295,292a8,8,0,0,0-8-8H225a8,8,0,0,0-8,8v37a8,8,0,0,0,8,8h62a8,8,0,0,0,8-8Zm-16,28H233V300h46Z"/><path data-name="Compound Path" d="M102.973,362.942A61.877,61.877,0,1,0,41.1,301.065,61.947,61.947,0,0,0,102.973,362.942Zm0-107.754A45.877,45.877,0,1,1,57.1,301.065,45.929,45.929,0,0,1,102.973,255.188Z"/><path data-name="Compound Path" d="M204,487V470.52a101,101,0,0,0-202,0V487a8,8,0,0,0,8,8H195.946A8.047,8.047,0,0,0,204,487Zm-16-8H18v-8.48a85,85,0,0,1,170,0Z"/><path data-name="Compound Path" d="M347.15,301.065a61.877,61.877,0,1,0,61.877-61.877A61.947,61.947,0,0,0,347.15,301.065Zm61.877-45.877a45.877,45.877,0,1,1-45.877,45.877A45.929,45.929,0,0,1,409.027,255.188Z"/><path data-name="Compound Path" d="M409,369.547A101.11,101.11,0,0,0,308,470.52V487a8.047,8.047,0,0,0,8.054,8H502a8,8,0,0,0,8-8V470.52A101.11,101.11,0,0,0,409,369.547ZM494,479H324v-8.48a85,85,0,0,1,170,0Z"/></g></svg>