<svg xmlns="http://www.w3.org/2000/svg" data-name="Layer 1" viewBox="0 0 300 375" x="0px" y="0px"><title> outsource development</title><path d="M181.79,245.07H134.68a7.82,7.82,0,0,1-7.81-7.81c0-18.92-7.79-35.53-24.51-52.25a79,79,0,1,1,111.75,0c-16.73,16.72-24.52,33.33-24.52,52.25A7.81,7.81,0,0,1,181.79,245.07ZM158.23,55.12A74,74,0,0,0,105.9,181.48c17.72,17.72,26,35.44,26,55.78a2.81,2.81,0,0,0,2.81,2.81h47.11a2.8,2.8,0,0,0,2.8-2.81c0-20.34,8.26-38.06,26-55.78A74,74,0,0,0,158.23,55.12Z"/><path d="M196.61,167.51,193.07,164a49.32,49.32,0,0,0,0-69.67l3.54-3.53A54.34,54.34,0,0,1,196.61,167.51Z"/><rect x="134.68" y="267.16" width="47.11" height="5"/><rect x="161.04" y="12.22" width="5" height="23.32"/><rect x="107.69" y="23.67" width="5" height="23.32" transform="matrix(0.87, -0.5, 0.5, 0.87, -2.9, 59.83)"/><rect x="67.22" y="60.26" width="5" height="23.32" transform="matrix(0.5, -0.87, 0.87, 0.5, -27.42, 96.34)"/><rect x="194.62" y="32.83" width="23.32" height="5" transform="translate(72.54 196.3) rotate(-60)"/><rect x="235.09" y="69.41" width="23.32" height="5" transform="translate(-2.9 133.01) rotate(-30)"/></svg>