<svg xmlns="http://www.w3.org/2000/svg" xmlns:xlink="http://www.w3.org/1999/xlink" version="1.1" x="0px" y="0px" viewBox="0 0 64 80" style="enable-background:new 0 0 64 64;" xml:space="preserve"><g><path d="M28,38c0,0.551,0.448,1,1,1h5c0.732,0,1.409,0.212,2,0.556V38.82l-8-1.6V38z"/><path d="M56,14c0-0.551-0.448-1-1-1s-1,0.449-1,1v3h2V14z"/><path d="M41,57h-4v4h4c1.103,0,2-0.897,2-2S42.103,57,41,57z"/><path d="M50.569,49.817l-3.58-0.795L37,51.02l-9.99-1.998l-3.58,0.795C20.822,50.397,19,52.669,19,55.341   C19,58.461,21.538,61,24.658,61H35v-4.3l-10.342-3.76l0.684-1.88L36.176,55h3.613l8.806-3.914l0.813,1.827l-6.199,2.755   C44.286,56.386,45,57.61,45,59c0,0.732-0.212,1.409-0.556,2h4.898C52.462,61,55,58.461,55,55.341   C55,52.669,53.178,50.397,50.569,49.817z"/><path d="M43.035,18.03l0.017-3.881c0.001-0.19-0.135-0.355-0.322-0.393c-0.698-0.138-1.345-0.4-1.925-0.757h-0.706   c-2.049,0-3.932-0.876-5.263-2.294l-5.563,2.801c-0.135,0.068-0.219,0.204-0.22,0.354l-0.018,4.108   c-0.008,1.875,0.716,3.64,2.039,4.969S34.159,25,36.035,25C39.878,25,43.019,21.874,43.035,18.03z M31.056,16c0-0.552,0.448-1,1-1   c0.552,0,1,0.448,1,1c0,0.552-0.448,1-1,1C31.504,17,31.056,16.552,31.056,16z M39.789,20.658C39.067,22.103,37.615,23,36,23   s-3.067-0.897-3.789-2.342l-0.105-0.21l1.789-0.895L34,19.764C34.381,20.526,35.147,21,36,21s1.619-0.474,2-1.236l0.105-0.211   l1.789,0.895L39.789,20.658z M40.056,17c-0.552,0-1-0.448-1-1c0-0.552,0.448-1,1-1c0.552,0,1,0.448,1,1   C41.056,16.552,40.608,17,40.056,17z"/><path d="M37.439,26.879C36.98,26.951,36.514,27,36.035,27c-0.499,0-0.99-0.05-1.472-0.129l-0.275,1.099   c-0.14,0.56-0.436,1.051-0.835,1.434C33.922,30.365,34.896,31,36,31c1.155,0,2.172-0.693,2.613-1.728   c-0.459-0.394-0.806-0.923-0.961-1.544L37.439,26.879z"/><path d="M26,17c-0.552,0-1,0.449-1,1s0.448,1,1,1l1.093-0.016c-0.036-0.338-0.059-0.678-0.058-1.023L27.039,17H26z"/><path d="M25.217,12.197L26.618,15h0.43l0.005-1.147c0.003-0.906,0.509-1.724,1.319-2.132l5.297-2.667   c-0.295-0.577-0.518-1.199-0.649-1.858l1.961-0.392c0.393,1.964,1.88,3.475,3.741,3.99C38.265,9.956,38,9.004,38,8h2   c0,1.842,1.312,3.438,3.118,3.795c1.124,0.223,1.937,1.216,1.934,2.362L45.048,15h0.334l0.695-1.392   C46.681,12.402,47,11.051,47,9.702c0-2.047-0.917-3.954-2.516-5.233C43.301,3.521,41.814,3,40.299,3h-4.088   c-4.042,0-7.969,1.06-11.442,3.076l3.754,2.815L25.217,12.197z"/><polygon points="29.844,35.549 32.627,36.106 30.371,34.494  "/><path d="M55,29.868C55,31.595,53.595,33,51.867,33c-0.748,0-1.482-0.204-2.125-0.588C47.112,30.834,44.103,30,41.037,30h-0.476   c-0.03,0-0.059-0.007-0.089-0.008C39.737,31.79,37.99,33,36,33c-1.896,0-3.571-1.1-4.361-2.76l-3.689,0.615   C24.503,31.43,22,34.384,22,37.879C22,41.806,25.194,45,29.121,45H30v-4h-1c-1.654,0-3-1.346-3-3v-3.22l1.81,0.362l1.818-3.636   L37,36.771l7.371-5.265l1.818,3.636L48,34.78V37h5c3.309,0,6-2.691,6-6v-4h-4V29.868z"/><polygon points="41.373,36.106 44.156,35.549 43.629,34.494  "/><polygon points="38,48.78 46,47.18 46,37.22 38,38.82  "/><path d="M55.895,23.447l-1.789-0.895l0.553-1.105C54.882,21,55,20.5,55,20c0-0.551-0.448-1-1-1s-1,0.449-1,1   c0,1.765,0.518,3.473,1.496,4.941L54.535,25H59v-2h-2.882L55.895,23.447z"/><path d="M60,19h-3.184C56.928,19.314,57,19.648,57,20c0,0.336-0.041,0.67-0.105,1H60c0.552,0,1-0.449,1-1S60.552,19,60,19z"/><path d="M36,43c0-1.103-0.897-2-2-2h-2v4h2C35.103,45,36,44.103,36,43z"/><path d="M28,46.932v0.249l8,1.6v-2.336C35.409,46.788,34.732,47,34,47h-4.879C28.741,47,28.367,46.977,28,46.932z"/><path d="M45.04,17l-0.004,1.039c-0.001,0.32-0.021,0.635-0.055,0.946L46.015,19C46.552,19,47,18.551,47,18s-0.448-1-1-1H45.04z"/><path d="M10,17c-1.565,0-3.061,0.748-4,2c-0.645,0.859-1,1.925-1,3c0,1.565,0.748,3.061,2,4l1.334,1H9v-3.277   C8.405,23.376,8,22.738,8,22c0-1.105,0.895-2,2-2s2,0.895,2,2c0,0.738-0.405,1.376-1,1.723V27h0.666l1.333-1   C14.252,25.061,15,23.565,15,22c0-1.075-0.355-2.141-1-3C13.061,17.748,11.565,17,10,17z"/><path d="M9,30c0,0.551,0.448,1,1,1s1-0.449,1-1v-1H9V30z"/><rect x="2.5" y="9.585" transform="matrix(0.8574 -0.5146 0.5146 0.8574 -5.9339 3.5837)" width="2" height="5.831"/><rect x="13.585" y="11.5" transform="matrix(0.5146 -0.8574 0.8574 0.5146 -2.7091 20.2142)" width="5.831" height="2"/><rect x="9" y="7" width="2" height="6"/></g></svg>