<svg xmlns:x="http://ns.adobe.com/Extensibility/1.0/" xmlns:i="http://ns.adobe.com/AdobeIllustrator/10.0/" xmlns:graph="http://ns.adobe.com/Graphs/1.0/" xmlns="http://www.w3.org/2000/svg" xmlns:xlink="http://www.w3.org/1999/xlink" xmlns:a="http://ns.adobe.com/AdobeSVGViewerExtensions/3.0/" version="1.1" x="0px" y="0px" viewBox="0 0 100 125" enable-background="new 0 0 100 100" xml:space="preserve"><path d="M99.584,49.785c-0.157-6.863-5.785-12.399-12.686-12.399s-12.527,5.537-12.685,12.399c-0.004,0.072-0.007,0.143-0.007,0.214  c0,6.016-2.142,10.343-6.549,13.231c-1.716,1.125-3.794,2.026-6.18,2.692c0.48-1.323,0.744-2.75,0.744-4.239  c0-6.801-5.487-12.342-12.267-12.437c-0.044-0.002-0.088-0.002-0.133-0.003c-0.015,0-0.028-0.001-0.042-0.001l0,0H3.814  c-1.88,0-3.405,1.525-3.405,3.405v3.267c0,6.697,1.33,12.923,3.953,18.502c2.507,5.332,6.146,9.984,10.815,13.829  C24.067,95.562,36.434,99.591,50,99.591c13.247,0,25.7-5.159,35.066-14.525c9.331-9.331,14.484-21.726,14.523-34.916  c0.001-0.024,0.002-0.047,0.002-0.071c0-0.009-0.001-0.017-0.001-0.025c0-0.018,0.001-0.035,0.001-0.053  C99.591,49.928,99.587,49.857,99.584,49.785z M50,92.78c-21.254,0-42.698-11.358-42.777-36.727H49.78l0,0  c3.105,0,5.631,2.526,5.631,5.63c0,3.106-2.525,5.631-5.631,5.631H27.322c-1.88,0-3.405,1.525-3.405,3.406s1.525,3.405,3.405,3.405  h23.131c0.048,0,0.098-0.001,0.146-0.004c8.652-0.076,15.645-1.822,20.792-5.194c6.258-4.101,9.583-10.59,9.625-18.772  c0-0.025,0.001-0.052,0.001-0.077c0-3.244,2.639-5.881,5.881-5.881c3.234,0,5.867,2.625,5.88,5.854  C92.751,73.616,73.572,92.78,50,92.78z"/><path d="M28.346,47.715c1.88,0,3.405-1.523,3.405-3.405c0-8.86,7.208-16.067,16.067-16.067c8.86,0,16.068,7.208,16.068,16.067v9.972  c0,1.881,1.524,3.406,3.405,3.406c1.88,0,3.405-1.525,3.405-3.406V44.31c0-9.069-5.303-16.921-12.972-20.621  c2.38-2.473,3.845-5.833,3.845-9.528c0-7.583-6.169-13.751-13.751-13.751S34.066,6.578,34.066,14.161  c0,3.696,1.466,7.055,3.846,9.528C30.244,27.388,24.94,35.241,24.94,44.31C24.94,46.191,26.464,47.715,28.346,47.715z M47.819,7.22  c3.828,0,6.941,3.114,6.941,6.94c0,3.828-3.113,6.941-6.941,6.941s-6.941-3.114-6.941-6.941C40.877,10.334,43.991,7.22,47.819,7.22z  "/></svg>