<svg xmlns:x="http://ns.adobe.com/Extensibility/1.0/" xmlns:i="http://ns.adobe.com/AdobeIllustrator/10.0/" xmlns:graph="http://ns.adobe.com/Graphs/1.0/" xmlns="http://www.w3.org/2000/svg" xmlns:xlink="http://www.w3.org/1999/xlink" xmlns:a="http://ns.adobe.com/AdobeSVGViewerExtensions/3.0/" version="1.1" x="0px" y="0px" viewBox="0 0 100 125" enable-background="new 0 0 100 100" xml:space="preserve"><metadata><?xpacket begin="&#65279;" id="W5M0MpCehiHzreSzNTczkc9d"?><x:xmpmeta xmlns:x="adobe:ns:meta/" x:xmptk="Adobe XMP Core 5.5-c014 79.151739, 2013/04/03-12:12:15        "/><?xpacket end="w"?></metadata><path d="M34.0844727,62.5494385C32.9672852,63.454895,31.5466919,64,30,64s-2.9672852-0.545105-4.0844727-1.4505615  C23.286438,63.9966431,21.5,66.7931519,21.5,70v1h17v-1C38.5,66.7931519,36.713562,63.9966431,34.0844727,62.5494385z"/><path d="M70,61c0.2909546,0,0.569397-0.0460815,0.8398438-0.1133423c1.0393066-0.2583618,1.8934937-0.9767456,2.333374-1.9313354  C73.3781128,58.5107422,73.5,58.0206909,73.5,57.5c0-1.9296875-1.5703125-3.5-3.5-3.5  c-0.9041138,0-1.7213135,0.3537598-2.3430786,0.9186401C66.9515991,55.5594482,66.5,56.4744263,66.5,57.5  c0,0.5206909,0.1218872,1.0107422,0.3267822,1.4553223C67.3811646,60.1583252,68.5910034,61,70,61z"/><path d="M74.0844727,62.5494385C72.9672852,63.454895,71.5466919,64,70,64s-2.9672852-0.545105-4.0844727-1.4505615  C63.286438,63.9966431,61.5,66.7931519,61.5,70v1h17v-1C78.5,66.7931519,76.713562,63.9966431,74.0844727,62.5494385z"/><path d="M29.1601563,60.8866577C29.430603,60.9539185,29.7090454,61,30,61c1.4089966,0,2.6188354-0.8416748,3.1732178-2.0446777  C33.3781128,58.5107422,33.5,58.0206909,33.5,57.5c0-1.0255737-0.4515991-1.9405518-1.1569214-2.5813599  C31.7213135,54.3537598,30.9041138,54,30,54c-1.9296875,0-3.5,1.5703125-3.5,3.5  c0,0.5206909,0.1218872,1.0107422,0.3267822,1.4553223C27.2666626,59.9099121,28.1208496,60.6282959,29.1601563,60.8866577z"/><path d="M70,46c-2.2781372,0-4.4540405,0.4237061-6.4798584,1.1622314L52.5003052,26.5H59V16H41v10.5h6.4996948  L36.4798584,47.1622314C34.4540405,46.4237061,32.2781372,46,30,46c-10.4765625,0-19,8.5234375-19,19s8.5234375,19,19,19  s19-8.5234375,19-19c0-7.1311646-3.9538574-13.3502808-9.7799683-16.5994873L50,28.1880493l10.7799683,20.2124634  C54.9538574,51.6497192,51,57.8688354,51,65c0,10.4765625,8.5234375,19,19,19s19-8.5234375,19-19S80.4765625,46,70,46z M41.5,70v4  h-23v-4c0-4.1726685,2.2414551-7.8225708,5.576355-9.8383179C23.7092896,59.3481445,23.5,58.4488525,23.5,57.5  c0-3.5839844,2.9160156-6.5,6.5-6.5c1.4107056,0,2.7140503,0.456665,3.7807007,1.2231445  c0.885498,0.6362915,1.602417,1.4884033,2.0778809,2.4801025C36.2653809,55.5517578,36.5,56.4978638,36.5,57.5  c0,0.9488525-0.2092285,1.8481445-0.5762939,2.6616821C39.2585449,62.1774292,41.5,65.8273315,41.5,70z M81.5,74h-23v-4  c0-4.1726685,2.2414551-7.8225708,5.576355-9.8383179C63.7092896,59.3481445,63.5,58.4488525,63.5,57.5  c0-1.0020752,0.2346802-1.9481812,0.6414795-2.7966919c0.4754639-0.9916992,1.1923218-1.843811,2.0778198-2.4801636  C67.2859497,51.456665,68.5892944,51,70,51c3.5839844,0,6.5,2.9160156,6.5,6.5c0,0.9488525-0.2092285,1.8481445-0.5762939,2.6616821  C79.2585449,62.1774292,81.5,65.8273315,81.5,70V74z"/></svg>